<svg width="110" height="92" viewBox="0 0 110 92" fill="none" xmlns="http://www.w3.org/2000/svg">
<path d="M9.86875 49.625V61H7.525V49.625H9.86875ZM16.5719 49.625L12.2125 56.3047H9.34531L9.04844 54.2188H10.9625L13.7281 49.625H16.5719ZM14.1578 61L10.9703 55.9141L12.5953 54.2422L16.9391 61H14.1578ZM17.4622 56.8594V56.6953C17.4622 56.0755 17.5507 55.5052 17.7278 54.9844C17.9049 54.4583 18.1627 54.0026 18.5013 53.6172C18.8398 53.2318 19.2565 52.9323 19.7513 52.7188C20.246 52.5 20.8138 52.3906 21.4544 52.3906C22.095 52.3906 22.6653 52.5 23.1653 52.7188C23.6653 52.9323 24.0846 53.2318 24.4231 53.6172C24.7669 54.0026 25.0273 54.4583 25.2044 54.9844C25.3815 55.5052 25.47 56.0755 25.47 56.6953V56.8594C25.47 57.474 25.3815 58.0443 25.2044 58.5703C25.0273 59.0911 24.7669 59.5469 24.4231 59.9375C24.0846 60.3229 23.6679 60.6224 23.1731 60.8359C22.6783 61.0495 22.1106 61.1562 21.47 61.1562C20.8294 61.1562 20.2591 61.0495 19.7591 60.8359C19.2643 60.6224 18.845 60.3229 18.5013 59.9375C18.1627 59.5469 17.9049 59.0911 17.7278 58.5703C17.5507 58.0443 17.4622 57.474 17.4622 56.8594ZM19.7122 56.6953V56.8594C19.7122 57.2135 19.7434 57.5443 19.8059 57.8516C19.8684 58.1589 19.9674 58.4297 20.1028 58.6641C20.2434 58.8932 20.4257 59.0729 20.6497 59.2031C20.8736 59.3333 21.1471 59.3984 21.47 59.3984C21.7825 59.3984 22.0507 59.3333 22.2747 59.2031C22.4986 59.0729 22.6783 58.8932 22.8138 58.6641C22.9492 58.4297 23.0481 58.1589 23.1106 57.8516C23.1783 57.5443 23.2122 57.2135 23.2122 56.8594V56.6953C23.2122 56.3516 23.1783 56.0286 23.1106 55.7266C23.0481 55.4193 22.9466 55.1484 22.8059 54.9141C22.6705 54.6745 22.4908 54.487 22.2669 54.3516C22.0429 54.2161 21.7721 54.1484 21.4544 54.1484C21.1367 54.1484 20.8658 54.2161 20.6419 54.3516C20.4231 54.487 20.2434 54.6745 20.1028 54.9141C19.9674 55.1484 19.8684 55.4193 19.8059 55.7266C19.7434 56.0286 19.7122 56.3516 19.7122 56.6953ZM32.7353 52.5469V54.3125H28.5791V52.5469H32.7353ZM34.3838 52.5469V61H32.1338V52.5469H34.3838ZM28.0166 52.5469H30.2275L30.0009 56.8125C29.9697 57.4219 29.9046 57.9583 29.8056 58.4219C29.7067 58.8854 29.5739 59.2812 29.4072 59.6094C29.2457 59.9375 29.0504 60.2057 28.8213 60.4141C28.5973 60.6172 28.3343 60.7656 28.0322 60.8594C27.7353 60.9531 27.4072 61 27.0478 61H26.3603L26.3369 59.2266L26.6259 59.1953C26.7926 59.1797 26.9384 59.1328 27.0634 59.0547C27.1936 58.9714 27.303 58.8542 27.3916 58.7031C27.4853 58.5469 27.5634 58.3516 27.6259 58.1172C27.6884 57.8776 27.7379 57.5964 27.7744 57.2734C27.816 56.9505 27.8447 56.5781 27.8603 56.1562L28.0166 52.5469ZM40.8834 55.2344V57H36.4694V55.2344H40.8834ZM47.2894 57.4688H44.6409L44.6253 55.9922H46.8128C47.1045 55.9922 47.3415 55.9635 47.5238 55.9062C47.706 55.8438 47.8389 55.7526 47.9222 55.6328C48.0107 55.5078 48.055 55.3568 48.055 55.1797C48.055 55.0234 48.0264 54.8906 47.9691 54.7812C47.917 54.6667 47.8363 54.5729 47.7269 54.5C47.6175 54.4271 47.4795 54.375 47.3128 54.3438C47.1514 54.3073 46.9613 54.2891 46.7425 54.2891H45.4769V61H43.2269V52.5469H46.7425C47.2946 52.5469 47.7894 52.5964 48.2269 52.6953C48.6644 52.7891 49.0368 52.9323 49.3441 53.125C49.6566 53.3177 49.8935 53.5625 50.055 53.8594C50.2217 54.151 50.305 54.4974 50.305 54.8984C50.305 55.1589 50.2451 55.4036 50.1253 55.6328C50.0107 55.862 49.8389 56.0651 49.6097 56.2422C49.3805 56.4193 49.0967 56.5651 48.7581 56.6797C48.4248 56.7891 48.0394 56.8568 47.6019 56.8828L47.2894 57.4688ZM47.2894 61H44.0863L44.8597 59.2578H47.2894C47.5654 59.2578 47.792 59.224 47.9691 59.1562C48.1461 59.0885 48.2764 58.9896 48.3597 58.8594C48.4482 58.724 48.4925 58.5625 48.4925 58.375C48.4925 58.1927 48.4534 58.0339 48.3753 57.8984C48.2972 57.763 48.1696 57.6589 47.9925 57.5859C47.8206 57.5078 47.5863 57.4688 47.2894 57.4688H45.1878L45.2034 55.9922H47.5941L48.1409 56.5859C48.7347 56.6224 49.2243 56.7344 49.6097 56.9219C49.9951 57.1094 50.279 57.349 50.4613 57.6406C50.6488 57.9271 50.7425 58.2422 50.7425 58.5859C50.7425 58.987 50.667 59.3385 50.5159 59.6406C50.3649 59.9427 50.1409 60.1953 49.8441 60.3984C49.5524 60.5964 49.193 60.7474 48.7659 60.8516C48.3389 60.9505 47.8467 61 47.2894 61ZM52.0859 56.8594V56.6953C52.0859 56.0755 52.1745 55.5052 52.3516 54.9844C52.5286 54.4583 52.7865 54.0026 53.125 53.6172C53.4635 53.2318 53.8802 52.9323 54.375 52.7188C54.8698 52.5 55.4375 52.3906 56.0781 52.3906C56.7188 52.3906 57.2891 52.5 57.7891 52.7188C58.2891 52.9323 58.7083 53.2318 59.0469 53.6172C59.3906 54.0026 59.651 54.4583 59.8281 54.9844C60.0052 55.5052 60.0938 56.0755 60.0938 56.6953V56.8594C60.0938 57.474 60.0052 58.0443 59.8281 58.5703C59.651 59.0911 59.3906 59.5469 59.0469 59.9375C58.7083 60.3229 58.2917 60.6224 57.7969 60.8359C57.3021 61.0495 56.7344 61.1562 56.0938 61.1562C55.4531 61.1562 54.8828 61.0495 54.3828 60.8359C53.888 60.6224 53.4688 60.3229 53.125 59.9375C52.7865 59.5469 52.5286 59.0911 52.3516 58.5703C52.1745 58.0443 52.0859 57.474 52.0859 56.8594ZM54.3359 56.6953V56.8594C54.3359 57.2135 54.3672 57.5443 54.4297 57.8516C54.4922 58.1589 54.5911 58.4297 54.7266 58.6641C54.8672 58.8932 55.0495 59.0729 55.2734 59.2031C55.4974 59.3333 55.7708 59.3984 56.0938 59.3984C56.4062 59.3984 56.6745 59.3333 56.8984 59.2031C57.1224 59.0729 57.3021 58.8932 57.4375 58.6641C57.5729 58.4297 57.6719 58.1589 57.7344 57.8516C57.8021 57.5443 57.8359 57.2135 57.8359 56.8594V56.6953C57.8359 56.3516 57.8021 56.0286 57.7344 55.7266C57.6719 55.4193 57.5703 55.1484 57.4297 54.9141C57.2943 54.6745 57.1146 54.487 56.8906 54.3516C56.6667 54.2161 56.3958 54.1484 56.0781 54.1484C55.7604 54.1484 55.4896 54.2161 55.2656 54.3516C55.0469 54.487 54.8672 54.6745 54.7266 54.9141C54.5911 55.1484 54.4922 55.4193 54.4297 55.7266C54.3672 56.0286 54.3359 56.3516 54.3359 56.6953ZM71.2416 58.4141L73.4603 52.5469H75.2962L71.9994 61H70.4837L67.2025 52.5469H69.0384L71.2416 58.4141ZM68.4994 52.5469V61H66.2494V52.5469H68.4994ZM74.0384 61V52.5469H76.2884V61H74.0384ZM82.4678 61.1562C81.8116 61.1562 81.223 61.0521 80.7022 60.8438C80.1814 60.6302 79.7386 60.3359 79.3741 59.9609C79.0147 59.5859 78.7386 59.151 78.5459 58.6562C78.3532 58.1562 78.2569 57.625 78.2569 57.0625V56.75C78.2569 56.1094 78.348 55.5234 78.5303 54.9922C78.7126 54.4609 78.973 54 79.3116 53.6094C79.6553 53.2188 80.072 52.9193 80.5616 52.7109C81.0511 52.4974 81.6032 52.3906 82.2178 52.3906C82.8168 52.3906 83.348 52.4896 83.8116 52.6875C84.2751 52.8854 84.6631 53.1667 84.9756 53.5312C85.2933 53.8958 85.5329 54.3333 85.6944 54.8438C85.8558 55.349 85.9366 55.9115 85.9366 56.5312V57.4688H79.2178V55.9688H83.7256V55.7969C83.7256 55.4844 83.6683 55.2057 83.5537 54.9609C83.4444 54.7109 83.2777 54.513 83.0537 54.3672C82.8298 54.2214 82.5433 54.1484 82.1944 54.1484C81.8975 54.1484 81.6423 54.2135 81.4287 54.3438C81.2152 54.474 81.0407 54.6562 80.9053 54.8906C80.7751 55.125 80.6761 55.401 80.6084 55.7188C80.5459 56.0312 80.5147 56.375 80.5147 56.75V57.0625C80.5147 57.401 80.5616 57.7135 80.6553 58C80.7543 58.2865 80.8923 58.5339 81.0694 58.7422C81.2517 58.9505 81.4704 59.112 81.7256 59.2266C81.986 59.3411 82.2803 59.3984 82.6084 59.3984C83.0147 59.3984 83.3923 59.3203 83.7412 59.1641C84.0954 59.0026 84.4001 58.7604 84.6553 58.4375L85.7491 59.625C85.572 59.8802 85.3298 60.125 85.0225 60.3594C84.7204 60.5938 84.3558 60.7865 83.9287 60.9375C83.5017 61.0833 83.0147 61.1562 82.4678 61.1562ZM91.03 59.3984C91.306 59.3984 91.5508 59.3464 91.7644 59.2422C91.9779 59.1328 92.1446 58.9818 92.2644 58.7891C92.3894 58.5911 92.4545 58.3594 92.4597 58.0938H94.5769C94.5717 58.6875 94.4128 59.2161 94.1003 59.6797C93.7878 60.138 93.3685 60.5 92.8425 60.7656C92.3165 61.026 91.7279 61.1562 91.0769 61.1562C90.4206 61.1562 89.8477 61.0469 89.3581 60.8281C88.8737 60.6094 88.4701 60.3073 88.1472 59.9219C87.8243 59.5312 87.5821 59.0781 87.4206 58.5625C87.2592 58.0417 87.1784 57.4844 87.1784 56.8906V56.6641C87.1784 56.0651 87.2592 55.5078 87.4206 54.9922C87.5821 54.4714 87.8243 54.0182 88.1472 53.6328C88.4701 53.2422 88.8737 52.9375 89.3581 52.7188C89.8425 52.5 90.4102 52.3906 91.0612 52.3906C91.754 52.3906 92.3607 52.5234 92.8816 52.7891C93.4076 53.0547 93.8191 53.4349 94.1159 53.9297C94.418 54.4193 94.5717 55 94.5769 55.6719H92.4597C92.4545 55.3906 92.3946 55.1354 92.28 54.9062C92.1706 54.6771 92.0092 54.4948 91.7956 54.3594C91.5873 54.2188 91.3295 54.1484 91.0222 54.1484C90.6941 54.1484 90.4258 54.2188 90.2175 54.3594C90.0092 54.4948 89.8477 54.6823 89.7331 54.9219C89.6185 55.1562 89.5378 55.4245 89.4909 55.7266C89.4493 56.0234 89.4284 56.3359 89.4284 56.6641V56.8906C89.4284 57.2188 89.4493 57.5339 89.4909 57.8359C89.5326 58.138 89.6107 58.4062 89.7253 58.6406C89.8451 58.875 90.0092 59.0599 90.2175 59.1953C90.4258 59.3307 90.6967 59.3984 91.03 59.3984ZM100.506 52.5469V61H98.2484V52.5469H100.506ZM103.225 52.5469V54.2891H95.5687V52.5469H103.225ZM59.1328 78.1719V79.3594H50.9141V78.5078L56.0078 70.625H57.1875L55.9219 72.9062L52.5547 78.1719H59.1328ZM57.5469 70.625V82H56.1016V70.625H57.5469Z" fill="#030305"/>
<path d="M70.7327 23.6242C68.7734 22.8309 66.7184 22.1858 64.614 21.6923C64.3044 17.9273 62.7213 14.5385 60.2714 12.4987L65.18 7.67935C65.2995 7.56208 65.3591 7.44487 65.3591 7.26903C65.3591 7.09318 65.2994 6.97591 65.18 6.8587L63.5083 5.21734C63.2694 4.98286 62.9112 4.98286 62.6723 5.21734L57.4799 10.3338C57.4378 10.177 57.4182 10.0127 57.4182 9.84838V8.85182C58.8511 8.03111 59.8064 6.50702 59.8064 4.80702C59.8064 4.78736 59.8051 4.76797 59.8048 4.74838C59.8051 4.72879 59.8064 4.7094 59.8064 4.68974C59.8065 2.11032 57.6571 0 55.0299 0C52.4028 0 50.2534 2.11032 50.2534 4.68968C50.2534 4.70933 50.2547 4.72872 50.255 4.74831C50.2547 4.7679 50.2534 4.78729 50.2534 4.80695C50.2534 6.44831 51.2087 8.03111 52.6417 8.85175V9.84831C52.6417 10.4931 52.2237 11.138 51.5669 11.4311C48.2089 13.0796 45.8617 17.0431 45.5047 21.6113C43.3084 22.1288 41.2143 22.8333 39.2674 23.6829C39.0883 23.7415 38.9092 23.9173 38.9092 24.1518C38.9092 24.3863 38.9689 24.5621 39.148 24.6794L41.5362 26.2621C41.7153 26.3794 41.8945 26.3794 42.0736 26.3208C43.246 25.9371 44.38 25.601 45.4852 25.3121C45.5644 28.6109 46.2111 31.5691 47.3277 33.707C47.4471 33.8829 47.6262 34.0001 47.8651 34.0001H50.8504C51.0295 34.0001 51.328 33.8829 51.3877 33.707C51.4475 33.5312 51.5072 33.2967 51.3877 33.1208C50.6713 31.7725 50.313 29.838 50.2534 27.4345C53.3581 26.8483 56.7614 26.8483 59.8063 27.4345C59.7466 29.838 59.3884 31.7725 58.6719 33.1208C58.5525 33.2966 58.5525 33.5311 58.6719 33.707C58.7914 33.8829 59.0302 34.0001 59.2093 34.0001H62.1946C62.4335 34.0001 62.6126 33.8829 62.6723 33.707C63.7912 31.5647 64.4384 28.5987 64.5154 25.2915C65.6399 25.5851 66.7933 25.928 67.9861 26.3208C68.0458 26.3795 68.1055 26.3795 68.1652 26.3795C68.2846 26.3795 68.404 26.3208 68.4637 26.2036L70.852 24.6209C71.0311 24.5036 71.0908 24.3278 71.0908 24.0933C71.0909 23.9173 70.9118 23.6827 70.7327 23.6242ZM63.3292 21.3966C60.8807 20.8957 58.3888 20.6096 55.9277 20.5367C54.6677 20.4933 53.4122 20.5038 52.1704 20.5697L59.4483 13.4242C61.5977 15.1827 63.0306 18.1138 63.3292 21.3966ZM53.4874 7.86177C53.4842 7.85958 53.4809 7.85725 53.4776 7.85513C53.4116 7.82425 53.3472 7.79125 53.2839 7.75685C52.2918 7.20873 51.5881 6.21091 51.4664 5.0496C51.4661 5.04707 51.466 5.04455 51.4657 5.04203C51.4606 4.99196 51.4569 4.94155 51.454 4.89095C51.4532 4.87787 51.4525 4.86486 51.4519 4.85177C51.4494 4.79798 51.4477 4.744 51.4477 4.68961C51.4477 2.75513 53.0597 1.17234 55.0301 1.17234C57.0005 1.17234 58.6125 2.75513 58.5528 4.68961C58.5528 6.03786 57.7766 7.26889 56.5227 7.85513C56.4672 7.88242 56.4188 7.91317 56.3761 7.94677C55.9599 8.11385 55.5056 8.20682 55.0301 8.20682C54.4785 8.20688 53.9552 8.08277 53.4874 7.86177ZM52.1044 12.369C53.1791 11.8414 53.8358 10.8448 53.8358 9.73104V9.22987C54.2178 9.32736 54.618 9.37928 55.0299 9.37928C55.4206 9.37928 55.8003 9.33161 56.1643 9.24368V9.73104C56.1643 10.2 56.3434 10.7276 56.5823 11.1379L46.7905 20.7518C47.3279 16.9414 49.3579 13.7172 52.1044 12.369ZM61.8365 32.8276H60.105C60.7021 31.3034 61.0006 29.3103 61.0006 26.9655C61.0006 26.6724 60.8215 26.4379 60.5229 26.3793C57.06 25.6172 53.0596 25.6172 49.537 26.3793C49.2384 26.4379 49.0593 26.6724 49.0593 26.9655C49.0593 29.3103 49.3579 31.3034 49.9549 32.8276H48.2234C47.2681 30.8345 46.7307 28.1379 46.671 25.0897C46.9098 25.031 47.0889 24.9724 47.3278 24.9138C52.5222 23.8001 57.1793 23.8001 62.314 24.8552C62.6723 24.9138 63.0305 25.031 63.3887 25.0897C63.3292 28.1379 62.7918 30.8345 61.8365 32.8276ZM68.1057 25.1482C63.8728 23.7891 60.1148 23.0365 56.4081 22.8894C53.324 22.7516 50.2863 23.0308 47.0294 23.7414C46.6711 23.8586 46.2532 23.9172 45.895 24.0345C45.8853 24.0393 45.8759 24.0442 45.8664 24.0492C44.6202 24.3561 43.3404 24.7224 42.014 25.1482L40.7602 24.3275C42.433 23.6158 44.3141 23.0576 46.209 22.6527C46.2237 22.6609 46.2384 22.6718 46.2532 22.6862C46.3129 22.6275 46.3726 22.6275 46.4323 22.6275C46.4448 22.6152 46.4574 22.6059 46.4699 22.5983C46.5171 22.5886 46.5642 22.5785 46.6114 22.569C46.7309 22.5103 46.8503 22.4517 46.91 22.3931L57.7765 11.7828C57.8347 11.7257 57.8784 11.6616 57.9091 11.594L63.0904 6.50688L63.9263 7.3276L50.0745 20.9276C49.8954 21.1034 49.8356 21.3379 49.955 21.5724C50.0745 21.8069 50.3133 21.9242 50.5521 21.9242C50.56 21.9234 50.5678 21.9227 50.5756 21.9219C50.5877 21.9225 50.5997 21.9242 50.6118 21.9242C53.1996 21.6805 55.8715 21.6642 58.5152 21.8997C60.0639 22.0438 61.6065 22.2721 63.1293 22.5823C63.376 22.6342 63.6218 22.6881 63.8667 22.7449H63.8904C65.7346 23.1552 67.5463 23.6842 69.2999 24.3277L68.1057 25.1482Z" fill="#030305"/>
</svg>
